<?xml version="1.0" encoding="UTF-8"?><svg id="_レイヤー_2" xmlns="http://www.w3.org/2000/svg" viewBox="0 0 65 65"><defs><style>.cls-1{fill:#fff;}.cls-2{fill:#dfc400;}</style></defs><g id="_レイヤー_1-2"><g><circle class="cls-2" cx="32.5" cy="32.5" r="32.5"/><g><path class="cls-1" d="M34.38,29.45c0,1.74,.05,1.96,.59,2.25,.51,.29,1.22,.37,3.01,.39v1.05h-10.05v-1.05c3.5-.02,3.84-.24,3.84-2.57v-8.7c0-1.1-.1-1.54-.39-1.69-.64-.29-1.42-.39-3.35-.39v-.98c2.52-.49,4.18-1,6.36-1.96v13.64Z"/><path class="cls-1" d="M21.22,47.06c-.39,0-.64-.34-.64-.66,0-.26,.16-.51,.51-.58,1.53-.35,2.96-1.12,4.19-2.06-.32-.25-.67-.43-1.08-.61-.25-.1-.35-.27-.35-.43,0-.29,.31-.58,.7-.58,.36,0,1.27,.45,1.69,.82,1.1-1.02,1.89-2.1,1.89-2.27,0-.13,0-.17-.88-.17-.58,0-1.3,.03-1.88,.04-.86,.92-3.2,3.11-3.99,3.11-.4,0-.67-.31-.67-.62,0-.19,.1-.39,.36-.52,1.38-.7,3.22-2.32,4.19-3.81,.14-.21,.32-.3,.52-.3,.35,0,.71,.3,.71,.64,0,.1-.04,.21-.25,.48,.77-.01,1.6-.04,2.14-.04,.71,0,1.21,.4,1.21,.95,0,.23-.09,.49-.27,.77-.78,1.13-1.92,2.33-3.26,3.36,.42-.01,.87-.01,1.32-.01,.74,0,1.49,.01,2.17,.03,.78,.03,1.31,.58,1.35,1.15,.03,.38,.03,.78,.03,1.18s0,.8-.03,1.21c-.04,.69-.57,1.26-1.41,1.3-.62,.03-1.28,.04-1.92,.04-.73,0-1.44-.01-2.05-.04-.92-.04-1.4-.56-1.44-1.28-.01-.31-.03-.66-.03-1.02,0-.43,.01-.87,.03-1.22-.96,.54-2.43,1.18-2.85,1.18Zm8.46-.08c0-.3,0-.6-.01-.86-.01-.31-.18-.49-.6-.51-.51-.01-1.08-.03-1.63-.03s-1.1,.01-1.57,.03c-.39,.01-.58,.27-.6,.52-.01,.21-.01,.44-.01,.69,0,.32,0,.67,.01,.97,.01,.54,.22,.54,2.18,.54,.56,0,1.13-.01,1.65-.03,.32-.01,.56-.16,.57-.52,.01-.25,.01-.53,.01-.82Z"/><path class="cls-1" d="M44.26,44.02l-2.75-.03c.17,.54,.4,1.06,.7,1.56,.47-.29,.96-.69,1.26-1,.12-.12,.25-.17,.36-.17,.32,0,.64,.31,.64,.62,0,.43-.79,.91-1.69,1.36,.48,.61,1.08,1.14,1.74,1.53,.22,.13,.31,.31,.31,.51,0,.31-.27,.64-.65,.64-.64,0-1.97-1.45-2.79-3.15v.36s.1,1.85,.1,1.85v.08c0,.69-.4,1.54-1.84,1.54-.87,0-1.34-.16-1.34-.66,0-.3,.19-.58,.53-.58,.04,0,.08,0,.12,.01,.25,.05,.49,.09,.7,.09,.4,0,.67-.16,.67-.75v-3.84s-2.36,.03-2.36,.03c-.1,0-.19-.01-.27-.05,.03,.06,.05,.14,.05,.21,0,.31-.27,.58-.56,.58-.13,0-.26-.06-.38-.21-.14-.19-.34-.43-.52-.62,.01,2.02,.06,5.28,.06,5.28h0c0,.38-.32,.56-.64,.56s-.64-.18-.64-.54h0s.05-4.7,.05-4.7c-.34,.6-.71,1.15-1.1,1.63-.16,.19-.35,.27-.53,.27-.32,0-.62-.27-.62-.58,0-.16,.06-.31,.21-.45,.66-.67,1.52-1.89,2.05-3.1v-.3l-1.26,.03h-.03c-.39,0-.57-.26-.57-.54s.21-.6,.6-.6h1.25l-.04-2.14h0c0-.39,.32-.57,.65-.57s.62,.18,.62,.56h0s-.03,1-.04,2.15h.88c.38,0,.57,.29,.57,.57s-.19,.57-.56,.57h-.91c0,.3-.01,.61-.01,.89,.05,0,.1,.01,.16,.04,.3,.14,.77,.49,1.02,.74-.01-.04-.01-.09-.01-.13,0-.25,.18-.51,.51-.51h2.35v-.7h-1.78c-.35,0-.52-.22-.52-.44,0-.25,.18-.49,.52-.49h1.76v-.64h-2.13c-.36,0-.53-.22-.53-.45,0-.25,.18-.49,.53-.49h1.09c-.19-.29-.32-.45-.62-.7-.13-.1-.18-.22-.18-.34,0-.27,.29-.51,.6-.51,.4,0,1.3,.88,1.3,1.28,0,.09-.03,.18-.06,.26h.91c.26-.42,.53-.91,.69-1.3,.1-.23,.29-.32,.48-.32,.32,0,.67,.26,.67,.57,0,.13-.04,.27-.58,1.05h1.45c.35,0,.52,.23,.52,.47,0,.25-.17,.48-.52,.48h-2.53v.64h1.97c.34,0,.49,.23,.49,.47s-.16,.47-.49,.47h-1.96v.7h2.85c.32,0,.48,.25,.48,.48,0,.25-.16,.48-.47,.48h-.01Zm-6.78,4.55c-.38,0-.6-.32-.6-.64,0-.22,.12-.43,.38-.52,.88-.3,1.44-.61,2.19-1.14,.09-.06,.19-.1,.29-.1,.27,0,.49,.23,.49,.52,0,.16-.08,.32-.26,.48-.66,.54-2.09,1.4-2.49,1.4Zm1.39-2.56c-.38-.39-.75-.51-1.02-.64-.18-.09-.25-.22-.25-.36,0-.26,.26-.54,.56-.54,.21,0,1.61,.44,1.61,1.09,0,.31-.26,.62-.54,.62-.12,0-.23-.05-.35-.17Z"/></g></g></g></svg>