<?xml version="1.0" encoding="UTF-8"?><svg id="_レイヤー_2" xmlns="http://www.w3.org/2000/svg" viewBox="0 0 65 65"><defs><style>.cls-1{fill:#fff;}.cls-2{fill:#dfc400;}</style></defs><g id="_レイヤー_1-2"><g><circle class="cls-2" cx="32.5" cy="32.5" r="32.5"/><g><path class="cls-1" d="M15.12,21.92c-.12,.05-1.03,.5-1.31,.5-.4,0-.64-.32-.64-.64,0-.23,.12-.47,.42-.58,.56-.21,1.06-.4,1.54-.62v-2.16h-1.22c-.39,0-.59-.29-.59-.59s.2-.59,.59-.59h1.22v-2.14c-.01-.42,.31-.63,.63-.63s.63,.2,.63,.63v2.14h.92c.4,0,.59,.29,.59,.59s-.19,.59-.59,.59h-.92v1.55c.64-.36,.72-.4,.84-.4,.29,0,.54,.27,.54,.58,0,.36-.2,.48-1.39,1.13v1.53c0,.21,.04,1.43,.05,1.9v.05c0,.84-.55,1.5-1.71,1.5-.71,0-1.21-.12-1.21-.72,0-.31,.19-.62,.52-.62,.04,0,.08,0,.12,.01,.12,.03,.28,.05,.43,.05,.28,0,.55-.09,.55-.44v-2.63Zm5.43-6.85c0-.38,.32-.56,.64-.56s.64,.19,.64,.56v2.51c.44,0,.88,.01,1.29,.03,.87,.03,1.39,.64,1.42,1.33,.03,.68,.04,1.74,.04,2.8s-.01,2.13-.04,2.85c-.03,.74-.59,1.38-1.42,1.42-.54,.03-1.15,.04-1.77,.04-.71,0-1.41-.01-1.97-.04-.91-.04-1.37-.62-1.39-1.41-.03-.67-.04-1.62-.04-2.6,0-1.11,.01-2.26,.04-3.04,.01-.64,.4-1.31,1.41-1.35,.35-.01,.74-.03,1.15-.03v-2.51Zm.04,3.62c-.32,0-.62,0-.86,.01-.4,.01-.56,.27-.58,.58-.01,.46-.04,1.1-.04,1.79h1.47v-2.38Zm0,3.48h-1.47c0,.82,.03,1.59,.04,2.14,.03,.59,.47,.59,1.43,.59v-2.73Zm2.76-1.1c0-.71,0-1.37-.01-1.81-.03-.58-.28-.59-1.53-.59v2.4h1.54Zm-1.54,1.1v2.73c1.18,0,1.51-.01,1.53-.6,.01-.52,.01-1.31,.01-2.13h-1.54Z"/><path class="cls-1" d="M27.14,26.2c-.38,0-.71-.35-.71-.7,0-.17,.09-.36,.32-.5,.68-.4,1.27-.87,1.71-1.41,.01-.72,.05-1.35,.05-1.96,0-.47-.01-.62-.56-.62-.21,0-.39,.01-.59,.01-.19,0-.64-.01-.64-.58,0-.29,.19-.6,.54-.6h.82c.95,0,1.69,.11,1.69,1.26,0,.78-.05,1.69-.05,2.55,.16,.2,.36,.39,.6,.56-.07-.09-.09-.21-.09-.32,0-.21,.13-.42,.43-.44,.62-.05,1.39-.31,2.02-.76,.08-.07,.17-.09,.25-.09,.25,0,.47,.28,.47,.55,0,.15-.05,.29-.2,.39-.64,.44-1.57,.83-2.32,.94h-.16c.51,.27,1.26,.54,3.13,.54,1.39,0,2.91-.15,3.93-.23h.07c.42,0,.64,.32,.64,.64s-.2,.63-.67,.67c-.84,.08-2.1,.16-3.38,.16-3.38,0-4.42-.6-5.39-1.65-.38,.43-1.39,1.58-1.92,1.58Zm1.55-8.78c-.35-.54-.94-.95-1.31-1.17-.19-.11-.27-.25-.27-.42,0-.29,.32-.6,.68-.6,.4,0,2.08,1.03,2.08,1.71,0,.39-.36,.75-.72,.75-.16,0-.33-.08-.46-.28Zm5.24,5.01l-3.56,.03c-.33,0-.5-.24-.5-.47,0-.24,.16-.47,.5-.47h1.78s0-.8,0-.8h-1.29c-.33,.01-.5-.21-.5-.46,0-.23,.16-.46,.5-.46h1.29s0-.36,0-.36c0-.19,.12-.31,.28-.38-.15,.01-.29,.01-.44,.01-1.33,0-1.84-.17-1.84-1.45,0-.43,.01-1.11,1.06-1.11h.78c.39,0,.51,0,.51-.31,0-.19-.03-.24-.21-.25h-1.71c-.32,0-.47-.23-.47-.47s.16-.48,.46-.5h.46c.63,0,1.35,.01,1.57,.01,.71,0,.98,.29,.98,1.25,0,1.14-.31,1.14-2.09,1.14-.21,0-.24,.09-.24,.44s.11,.35,.79,.35c.46,0,.8-.03,.83-.44,.01-.29,.25-.43,.5-.43,.29,0,.59,.17,.59,.5,0,.54-.27,1.07-1.09,1.21,.23,.04,.44,.17,.44,.43v.38h.64s.62,.01,.62,.01v-.39c0-.25,.21-.4,.46-.43-.91-.17-.91-.8-.91-1.22,0-.6,.01-1.27,1.04-1.27h.82c.48,0,.52-.01,.52-.31,0-.19-.03-.24-.21-.25h-1.81c-.31,0-.46-.23-.46-.46,0-.25,.16-.5,.46-.51h.46c.66,0,1.42,.01,1.63,.01,.78,0,.99,.36,.99,1.25,0,1.11-.25,1.14-2.16,1.14-.25,0-.25,.12-.25,.43,0,.33,.05,.36,.84,.36,.67,0,.98-.03,1-.51,.01-.29,.25-.43,.5-.43,.29,0,.6,.19,.6,.51,0,1.23-1.17,1.34-2.09,1.34-.2,0-.39-.01-.58-.03,.16,.07,.28,.19,.28,.38v.38h1.39c.33-.01,.5,.21,.5,.44,0,.24-.16,.47-.5,.47h-1.39s0,.8,0,.8h1.96c.33-.01,.5,.21,.5,.46,0,.23-.16,.47-.5,.47l-3.71-.03Zm.62-1.71h-.62s-.64,0-.64,0v.82h.66s.6,0,.6,0v-.82Zm-.08,2.79c-.17-.09-.24-.24-.24-.39,0-.27,.24-.54,.52-.54,.08,0,.17,.03,.25,.07,.71,.4,1.63,.67,2.32,.72,.33,.03,.48,.25,.48,.5,0,.29-.23,.6-.6,.6-.5,0-1.82-.43-2.73-.96Z"/><path class="cls-1" d="M48.61,25.6h-.13c-2.91-.27-4.74-2.28-4.74-4.34,0-.52,.12-1.43,.96-2.45,.04-.05,.07-.09,.07-.12,0-.01-.01-.03-.03-.03-.03,0-.08,.03-.13,.05-2.1,1.09-2.36,1.17-2.65,1.17-.5,0-.82-.35-.82-.72,0-.27,.19-.56,.62-.7,.28-.09,1.04-.32,1.45-.47,.63-.23,1.74-.58,3.07-1.1,.99-.39,2.3-.83,3.55-.83,.67,0,.91,.31,.91,.66,0,.68-.56,.83-1.07,.83-.09,0-.2,0-.31-.01-.11-.01-.21-.01-.32-.01-2.08,0-4.11,1.77-4.11,3.56,0,1.61,1.53,2.97,3.63,2.97,.67,0,.99,.39,.99,.79,0,.38-.31,.75-.92,.75Zm1.15-4.7c-.19-.21-.86-.71-1.14-.83-.24-.09-.33-.25-.33-.42,0-.27,.25-.52,.59-.52,.17,0,1.81,.62,1.81,1.31,0,.33-.29,.63-.58,.63-.12,0-.24-.05-.35-.17Zm1.54-1.11c-.19-.21-.88-.68-1.17-.79-.24-.09-.35-.25-.35-.42,0-.27,.25-.54,.59-.54,.21,0,1.82,.58,1.82,1.27,0,.33-.27,.63-.56,.63-.11,0-.23-.05-.33-.16Z"/><path class="cls-1" d="M12.74,41.4c.28-2.51,.45-4.83,.59-8.63h8.74l-.5,2.49h-7.35c-.07,1.42-.17,2.46-.38,4.98,1.11-1.14,2.37-1.66,3.89-1.66,3.01,0,5.21,2.2,5.21,5.17,0,3.25-2.56,5.62-6.14,5.62-2.75,0-4.83-1.42-4.83-3.34,0-.88,.69-1.56,1.49-1.56s1.47,.73,1.47,1.73c0,.17-.02,.28-.07,.52-.02,.12-.02,.17-.02,.21,0,.88,.83,1.45,1.99,1.45,2.11,0,3.25-1.52,3.25-4.36,0-2.63-1.07-4.08-2.99-4.08-1.45,0-2.35,.47-3.58,1.82l-.78-.36Z"/><path class="cls-1" d="M29.18,48.1c-.4,0-.66-.35-.66-.68,0-.27,.16-.52,.52-.6,1.58-.36,3.05-1.15,4.33-2.13-.33-.25-.7-.44-1.11-.63-.25-.11-.36-.28-.36-.44,0-.29,.32-.6,.72-.6,.38,0,1.31,.47,1.74,.84,1.14-1.06,1.96-2.17,1.96-2.34,0-.13,0-.17-.91-.17-.6,0-1.34,.03-1.94,.04-.88,.95-3.31,3.22-4.13,3.22-.42,0-.7-.32-.7-.64,0-.2,.11-.4,.38-.54,1.42-.72,3.32-2.4,4.33-3.94,.15-.21,.33-.31,.54-.31,.36,0,.74,.31,.74,.66,0,.11-.04,.21-.25,.5,.79-.01,1.65-.04,2.21-.04,.74,0,1.25,.42,1.25,.98,0,.24-.09,.51-.28,.79-.8,1.17-1.98,2.41-3.36,3.47,.43-.01,.9-.01,1.37-.01,.76,0,1.54,.01,2.24,.03,.8,.03,1.35,.6,1.39,1.19,.03,.39,.03,.8,.03,1.22s0,.83-.03,1.25c-.04,.71-.59,1.3-1.46,1.34-.64,.03-1.33,.04-1.98,.04-.75,0-1.49-.01-2.12-.04-.95-.04-1.45-.58-1.49-1.33-.01-.32-.03-.68-.03-1.06,0-.44,.01-.9,.03-1.26-.99,.56-2.51,1.22-2.95,1.22Zm8.73-.08c0-.31,0-.62-.01-.88-.01-.32-.19-.51-.62-.52-.52-.01-1.11-.03-1.69-.03s-1.14,.01-1.62,.03c-.4,.01-.6,.28-.62,.54-.01,.21-.01,.46-.01,.71,0,.33,0,.7,.01,1,.01,.56,.23,.56,2.25,.56,.58,0,1.17-.01,1.7-.03,.33-.01,.58-.16,.59-.54,.01-.25,.01-.55,.01-.84Z"/><path class="cls-1" d="M52.98,44.96l-2.84-.03c.17,.56,.42,1.1,.72,1.61,.48-.29,.99-.71,1.3-1.03,.12-.12,.25-.17,.38-.17,.33,0,.66,.32,.66,.64,0,.44-.82,.94-1.74,1.41,.5,.63,1.11,1.18,1.8,1.58,.23,.13,.32,.32,.32,.52,0,.32-.28,.66-.67,.66-.66,0-2.04-1.5-2.88-3.26v.38s.11,1.92,.11,1.92v.08c0,.71-.42,1.59-1.9,1.59-.9,0-1.38-.16-1.38-.68,0-.31,.2-.6,.55-.6,.04,0,.08,0,.12,.01,.25,.05,.51,.09,.72,.09,.42,0,.7-.16,.7-.78v-3.97s-2.44,.03-2.44,.03c-.11,0-.2-.01-.28-.05,.03,.07,.05,.15,.05,.21,0,.32-.28,.6-.58,.6-.13,0-.27-.07-.39-.21-.15-.2-.35-.44-.54-.64,.01,2.09,.07,5.45,.07,5.45h0c0,.39-.33,.58-.66,.58s-.66-.19-.66-.56h0s.05-4.85,.05-4.85c-.35,.62-.74,1.19-1.14,1.69-.16,.2-.36,.28-.55,.28-.33,0-.64-.28-.64-.6,0-.16,.07-.32,.21-.47,.68-.7,1.57-1.96,2.12-3.2v-.31l-1.3,.03h-.03c-.4,0-.59-.27-.59-.56s.21-.62,.62-.62h1.29l-.04-2.21h0c0-.4,.33-.59,.67-.59s.64,.19,.64,.58h0s-.03,1.03-.04,2.22h.91c.39,0,.59,.29,.59,.59s-.2,.59-.58,.59h-.94c0,.31-.01,.63-.01,.92,.05,0,.11,.01,.16,.04,.31,.15,.79,.51,1.06,.76-.01-.04-.01-.09-.01-.13,0-.25,.19-.52,.52-.52h2.42v-.72h-1.84c-.36,0-.54-.23-.54-.46,0-.25,.19-.51,.54-.51h1.82v-.66h-2.2c-.38,0-.55-.23-.55-.47,0-.25,.19-.51,.55-.51h1.13c-.2-.29-.33-.47-.64-.72-.13-.11-.19-.23-.19-.35,0-.28,.29-.52,.62-.52,.42,0,1.34,.91,1.34,1.33,0,.09-.03,.19-.07,.27h.94c.27-.43,.55-.94,.71-1.34,.11-.24,.29-.33,.5-.33,.33,0,.7,.27,.7,.59,0,.13-.04,.28-.6,1.08h1.5c.36,0,.54,.24,.54,.48,0,.25-.17,.5-.54,.5h-2.61v.66h2.04c.35,0,.51,.24,.51,.48s-.16,.48-.51,.48h-2.02v.72h2.95c.33,0,.5,.25,.5,.5,0,.25-.16,.5-.48,.5h-.01Zm-7.01,4.7c-.39,0-.62-.33-.62-.66,0-.23,.12-.44,.39-.54,.91-.31,1.49-.63,2.26-1.18,.09-.07,.2-.11,.29-.11,.28,0,.51,.24,.51,.54,0,.16-.08,.33-.27,.5-.68,.56-2.16,1.45-2.57,1.45Zm1.43-2.64c-.39-.4-.78-.52-1.06-.66-.19-.09-.25-.23-.25-.38,0-.27,.27-.56,.58-.56,.21,0,1.66,.46,1.66,1.13,0,.32-.27,.64-.56,.64-.12,0-.24-.05-.36-.17Z"/></g></g></g></svg>