<?xml version="1.0" encoding="UTF-8"?><svg id="_レイヤー_2" xmlns="http://www.w3.org/2000/svg" viewBox="0 0 65 65"><defs><style>.cls-1{fill:#fff;}.cls-2{fill:#dfc400;}</style></defs><g id="_レイヤー_1-2"><g><circle class="cls-2" cx="32.5" cy="32.5" r="32.5"/><g><path class="cls-1" d="M26.79,25.6c.35-3.06,.55-5.88,.72-10.5h10.64l-.61,3.03h-8.94c-.09,1.73-.2,3-.46,6.06,1.36-1.38,2.88-2.02,4.73-2.02,3.66,0,6.34,2.68,6.34,6.29,0,3.95-3.11,6.83-7.47,6.83-3.35,0-5.88-1.73-5.88-4.07,0-1.07,.84-1.9,1.82-1.9s1.79,.89,1.79,2.1c0,.2-.03,.35-.09,.63-.03,.14-.03,.2-.03,.26,0,1.07,1.01,1.76,2.42,1.76,2.57,0,3.95-1.85,3.95-5.31,0-3.2-1.3-4.96-3.63-4.96-1.76,0-2.85,.58-4.35,2.22l-.95-.43Z"/><path class="cls-1" d="M20.85,48.88c-.4,0-.66-.35-.66-.68,0-.27,.16-.52,.52-.6,1.58-.36,3.05-1.15,4.33-2.13-.33-.25-.7-.44-1.11-.63-.25-.11-.36-.28-.36-.44,0-.29,.32-.6,.72-.6,.38,0,1.31,.47,1.74,.84,1.14-1.06,1.96-2.17,1.96-2.34,0-.13,0-.17-.91-.17-.6,0-1.34,.03-1.94,.04-.88,.95-3.31,3.22-4.13,3.22-.42,0-.7-.32-.7-.64,0-.2,.11-.4,.38-.54,1.42-.72,3.32-2.4,4.33-3.94,.15-.21,.33-.31,.54-.31,.36,0,.74,.31,.74,.66,0,.11-.04,.21-.25,.5,.79-.01,1.65-.04,2.21-.04,.74,0,1.25,.42,1.25,.98,0,.24-.09,.51-.28,.79-.8,1.17-1.98,2.41-3.36,3.47,.43-.01,.9-.01,1.37-.01,.76,0,1.54,.01,2.24,.03,.8,.03,1.35,.6,1.39,1.19,.03,.39,.03,.8,.03,1.22s0,.83-.03,1.25c-.04,.71-.59,1.3-1.46,1.34-.64,.03-1.33,.04-1.98,.04-.75,0-1.49-.01-2.12-.04-.95-.04-1.45-.58-1.49-1.33-.01-.32-.03-.68-.03-1.06,0-.44,.01-.9,.03-1.26-.99,.56-2.5,1.22-2.95,1.22Zm8.74-.08c0-.31,0-.62-.01-.88-.01-.32-.19-.51-.62-.52-.52-.01-1.11-.03-1.69-.03s-1.14,.01-1.62,.03c-.4,.01-.6,.28-.62,.54-.01,.21-.01,.46-.01,.71,0,.33,0,.7,.01,1,.01,.56,.23,.56,2.25,.56,.58,0,1.17-.01,1.7-.03,.33-.01,.58-.16,.59-.54,.01-.25,.01-.55,.01-.84Z"/><path class="cls-1" d="M44.65,45.74l-2.84-.03c.17,.56,.42,1.1,.72,1.61,.48-.29,.99-.71,1.3-1.03,.12-.12,.25-.17,.38-.17,.33,0,.66,.32,.66,.64,0,.44-.82,.94-1.74,1.41,.5,.63,1.11,1.18,1.79,1.58,.23,.13,.32,.32,.32,.52,0,.32-.28,.66-.67,.66-.66,0-2.04-1.5-2.88-3.26v.38s.11,1.92,.11,1.92v.08c0,.71-.42,1.59-1.9,1.59-.9,0-1.38-.16-1.38-.68,0-.31,.2-.6,.55-.6,.04,0,.08,0,.12,.01,.25,.05,.51,.09,.72,.09,.42,0,.7-.16,.7-.78v-3.97s-2.44,.03-2.44,.03c-.11,0-.2-.01-.28-.05,.03,.07,.05,.15,.05,.21,0,.32-.28,.6-.58,.6-.13,0-.27-.07-.39-.21-.15-.2-.35-.44-.54-.64,.01,2.09,.07,5.45,.07,5.45h0c0,.39-.33,.58-.66,.58s-.66-.19-.66-.56h0s.05-4.85,.05-4.85c-.35,.62-.74,1.19-1.14,1.69-.16,.2-.36,.28-.55,.28-.33,0-.64-.28-.64-.6,0-.16,.07-.32,.21-.47,.68-.7,1.57-1.96,2.12-3.2v-.31l-1.3,.03h-.03c-.4,0-.59-.27-.59-.56s.21-.62,.62-.62h1.29l-.04-2.21h0c0-.4,.33-.59,.67-.59s.64,.19,.64,.58h0s-.03,1.03-.04,2.22h.91c.39,0,.59,.29,.59,.59s-.2,.59-.58,.59h-.94c0,.31-.01,.63-.01,.92,.05,0,.11,.01,.16,.04,.31,.15,.79,.51,1.06,.76-.01-.04-.01-.09-.01-.13,0-.25,.19-.52,.52-.52h2.42v-.72h-1.84c-.36,0-.54-.23-.54-.46,0-.25,.19-.51,.54-.51h1.82v-.66h-2.2c-.38,0-.55-.23-.55-.47,0-.25,.19-.51,.55-.51h1.13c-.2-.29-.33-.47-.64-.72-.13-.11-.19-.23-.19-.35,0-.28,.29-.52,.62-.52,.42,0,1.34,.91,1.34,1.33,0,.09-.03,.19-.07,.27h.94c.27-.43,.55-.94,.71-1.34,.11-.24,.29-.33,.5-.33,.33,0,.7,.27,.7,.59,0,.13-.04,.28-.6,1.09h1.5c.36,0,.54,.24,.54,.48,0,.25-.17,.5-.54,.5h-2.61v.66h2.04c.35,0,.51,.24,.51,.48s-.16,.48-.51,.48h-2.02v.72h2.95c.33,0,.5,.25,.5,.5,0,.25-.16,.5-.48,.5h-.01Zm-7.01,4.7c-.39,0-.62-.33-.62-.66,0-.23,.12-.44,.39-.54,.91-.31,1.49-.63,2.26-1.18,.09-.07,.2-.11,.29-.11,.28,0,.51,.24,.51,.54,0,.16-.08,.33-.27,.5-.68,.56-2.16,1.45-2.57,1.45Zm1.43-2.64c-.39-.4-.78-.52-1.06-.66-.19-.09-.25-.23-.25-.38,0-.27,.27-.56,.58-.56,.21,0,1.66,.46,1.66,1.13,0,.32-.27,.64-.56,.64-.12,0-.24-.05-.36-.17Z"/></g></g></g></svg>